PathFileType	4	(X/Y/Z)	s03c0202.trc
DataRate	CameraRate	NumFrames	NumMarkers	Units	OrigDataRate	OrigDataStartFrame	OrigNumFrames
200	200	6	52	mm	200	1750	2000
Frame#	Time	racr			lacr			c7			jug			rlel			rdr			llel			ldr			s2			lic			ric			lasi			rasi			rpsi			lpsi			rgt			lgt			rth1			rth2			rth3			rth4			rlfc			rmfc			rsh1			rsh2			rsh3			rsh4			rlmal			rmmal			rcal			rtoe			rmt5			rmt1			lth1			lth2			lth4			lth3			llfc			lmfc			lsh1			lsh2			lsh3			lsh4			llmal			lmmal			lcal			ltoe			lmt1			lmt5			SBIKE			LBIKE			RBIKE			
		X1	Y1	Z1	X2	Y2	Z2	X3	Y3	Z3	X4	Y4	Z4	X5	Y5	Z5	X6	Y6	Z6	X7	Y7	Z7	X8	Y8	Z8	X9	Y9	Z9	X10	Y10	Z10	X11	Y11	Z11	X12	Y12	Z12	X13	Y13	Z13	X14	Y14	Z14	X15	Y15	Z15	X16	Y16	Z16	X17	Y17	Z17	X18	Y18	Z18	X19	Y19	Z19	X20	Y20	Z20	X21	Y21	Z21	X22	Y22	Z22	X23	Y23	Z23	X24	Y24	Z24	X25	Y25	Z25	X26	Y26	Z26	X27	Y27	Z27	X28	Y28	Z28	X29	Y29	Z29	X30	Y30	Z30	X31	Y31	Z31	X32	Y32	Z32	X33	Y33	Z33	X34	Y34	Z34	X35	Y35	Z35	X36	Y36	Z36	X37	Y37	Z37	X38	Y38	Z38	X39	Y39	Z39	X40	Y40	Z40	X41	Y41	Z41	X42	Y42	Z42	X43	Y43	Z43	X44	Y44	Z44	X45	Y45	Z45	X46	Y46	Z46	X47	Y47	Z47	X48	Y48	Z48	X49	Y49	Z49	X50	Y50	Z50	X51	Y51	Z51	X52	Y52	Z52	
1750	8.7500	452.165057	1444.687895	-85.888383	433.860660	1455.125753	-402.807551	361.769478	1527.372321	-237.756678	405.501849	1362.962932	-240.703396	514.947018	1186.410373	19.156160	723.941255	985.445015	-42.479024	508.175676	1195.357182	-478.380077	729.314344	982.233552	-452.691274	-118.401104	1188.037101	-236.792108	56.261004	1226.425982	-423.495775	49.265630	1229.994892	-51.815838	77.489063	1149.168850	-383.042471	74.785327	1163.517194	-106.263258	-96.747010	1240.944458	-192.222199	-90.410574	1239.140684	-275.879505	8.725958	1144.303553	-38.359690	-2.802711	1095.787838	-433.657068	140.257425	1061.657104	-20.610173	229.077127	1059.912192	-18.734189	304.557087	1017.491455	-20.825817	239.130051	1093.004007	-33.317424	420.855999	953.388050	-43.025571	429.207619	941.115181	-168.711231	348.655258	804.713761	-27.926610	326.797415	720.387268	-46.899084	264.441709	657.848835	-52.402677	353.925575	709.936998	-72.594416	199.137077	542.963461	-78.380802	224.295075	556.187642	-166.085735	133.168851	491.856976	-120.702576	443.191310	507.894190	-116.972256	325.103431	482.989138	-48.935522	350.433792	500.484429	-162.947969	62.633627	951.893741	-456.639543	118.659453	886.256114	-465.217373	151.963138	902.517457	-464.208925	137.288325	799.430213	-454.192221	210.009996	689.103816	-442.581308	223.298618	679.064858	-321.003583	121.661104	537.091529	-458.058827	111.935666	453.637069	-436.843426	57.956840	382.205115	-426.263401	142.804850	444.961608	-415.601279	6.974946	265.122432	-400.713903	46.328785	277.488531	-313.132739	-56.331822	215.699461	-347.805318	251.685939	212.818178	-363.778125	160.995198	207.695709	-317.066959	129.856847	185.188267	-430.479908	-218.175328	943.823389	-234.741994	-11.953200	80.880467	-435.527635	-11.998416	80.914274	-35.099023	
1751	8.7550	452.213750	1444.752250	-85.919488	433.910324	1455.188012	-402.893478	361.743572	1527.424629	-237.799780	405.579050	1362.968766	-240.758850	514.970211	1186.417259	19.128800	723.943398	985.450788	-42.474024	508.204729	1195.363972	-478.421018	729.348166	982.242698	-452.727137	-118.383583	1188.137122	-236.751267	56.333423	1226.399616	-423.495618	49.309638	1229.986473	-51.849891	77.564654	1149.074288	-383.122755	74.852831	1163.473368	-106.315438	-96.746995	1240.937712	-192.261249	-90.400029	1239.114068	-275.932016	8.770242	1144.304065	-38.390857	-2.810371	1095.740716	-433.674639	140.286645	1061.656609	-20.645534	229.130933	1059.919643	-18.785276	304.579367	1017.506403	-20.887078	239.178837	1093.018684	-33.365103	420.882923	953.410035	-43.084239	429.225205	941.102388	-168.785391	348.678338	804.731069	-27.964760	326.791041	720.409062	-46.932908	264.422098	657.882329	-52.413344	353.937552	709.961586	-72.638938	199.126034	542.987767	-78.387342	224.256047	556.232700	-166.092396	133.151771	491.876642	-120.700715	443.164085	507.915627	-116.970271	325.086536	483.000849	-48.932378	350.392573	500.503976	-162.962966	62.628257	951.843092	-456.629437	118.645100	886.200598	-465.213674	151.953580	902.450826	-464.197520	137.282440	799.369339	-454.160824	209.977456	689.046236	-442.558732	223.296258	679.024221	-321.001768	121.630425	537.037640	-458.006238	112.519777	454.479703	-438.662664	57.924559	382.164472	-426.219400	142.736114	444.900870	-415.490231	6.975284	265.088053	-400.651493	46.296610	277.470341	-313.081237	-56.314392	215.628782	-347.742851	251.713433	212.825619	-363.785263	161.021429	207.694622	-317.056805	129.863835	185.200391	-430.474381	-218.150149	943.802665	-234.686302	-11.957989	80.896708	-435.517155	-12.046823	80.965472	-35.114535	
1752	8.7600	452.229733	1444.835752	-85.918562	433.949089	1455.243573	-402.925280	361.744574	1527.461503	-237.850262	405.634427	1362.976165	-240.782783	514.986345	1186.430106	19.098398	723.951486	985.472743	-42.476461	508.234919	1195.368925	-478.445571	729.395947	982.240363	-452.755203	-118.340426	1188.230024	-236.733048	56.403413	1226.373900	-423.558855	49.371250	1229.982026	-51.909068	77.630477	1148.962958	-383.243839	74.920371	1163.429789	-106.367299	-96.716474	1240.908081	-192.308514	-90.381853	1239.090846	-275.987859	8.801195	1144.311169	-38.422099	-2.783549	1095.683488	-433.688787	140.313930	1061.667819	-20.682941	229.165210	1059.916598	-18.836019	304.623565	1017.507286	-20.943341	239.207580	1093.018240	-33.427868	420.915017	953.395117	-43.139533	429.244716	941.103631	-168.868650	348.690439	804.722283	-28.024731	326.809004	720.430943	-46.954502	264.416847	657.891609	-52.447541	353.905545	709.952157	-72.694946	199.106290	543.012613	-78.395347	224.256600	556.233243	-166.093262	133.121601	491.885801	-120.687311	443.136619	507.931738	-116.979308	325.066899	483.020125	-48.942562	350.368249	500.517554	-162.967633	62.627978	951.795241	-456.629431	118.641451	886.131557	-465.206514	151.955017	902.396851	-464.200332	137.268408	799.315874	-454.151986	209.964693	688.985828	-442.556454	223.291323	678.970922	-320.978068	121.590526	537.005308	-458.003885	112.521813	454.576566	-438.792145	57.899967	382.135920	-426.191765	142.859970	444.840588	-415.560633	6.961495	265.062646	-400.636569	46.261388	277.409172	-313.000823	-56.318409	215.544885	-347.665717	251.707388	212.837411	-363.787829	161.038385	207.673027	-317.050807	129.850590	185.182216	-430.459515	-218.153887	943.802960	-234.696387	-11.967157	80.888640	-435.516639	-12.052237	80.986732	-35.122537	
1753	8.7650	452.275830	1444.899894	-85.945304	434.012097	1455.285203	-402.976508	361.721787	1527.488749	-237.881401	405.743654	1363.006009	-240.826233	514.995832	1186.439294	19.068562	723.948216	985.472106	-42.506218	508.249476	1195.372321	-478.466057	729.446530	982.252271	-452.797507	-118.341081	1188.207595	-236.745852	56.489149	1226.337290	-423.591828	49.442262	1229.964228	-51.957332	77.663534	1148.865939	-383.274608	74.987953	1163.386455	-106.418834	-96.707277	1240.895946	-192.350198	-90.369714	1239.062468	-276.047734	8.834618	1144.332416	-38.455584	-2.761287	1095.631368	-433.705383	140.349038	1061.665575	-20.724086	229.202267	1059.919961	-18.895599	304.654012	1017.495467	-21.000756	239.231210	1093.013149	-33.491911	420.919687	953.375993	-43.202778	429.262210	941.086719	-168.938339	348.722821	804.717405	-28.058681	326.800756	720.446217	-46.986862	264.426405	657.887671	-52.460652	353.922449	709.948608	-72.713377	199.080824	543.028189	-78.385035	224.229900	556.251724	-166.112276	133.122122	491.892431	-120.712125	443.127029	507.937231	-116.966308	325.070647	483.028265	-48.956619	350.361538	500.514061	-162.969639	62.616124	951.740076	-456.619237	118.629571	886.071285	-465.202173	151.938745	902.330896	-464.222904	137.259218	799.259269	-454.138215	209.947444	688.902885	-442.547181	223.266074	678.939536	-320.988677	121.546017	536.966852	-457.969899	112.475012	454.534535	-438.732831	57.860985	382.101179	-426.150218	142.834622	444.807374	-415.549191	6.933559	265.024092	-400.594777	46.235467	277.356580	-312.967750	-56.329525	215.480478	-347.620460	251.679909	212.865920	-363.797885	161.011404	207.657462	-317.009984	129.835851	185.166600	-430.438818	-218.151261	943.787092	-234.696233	-11.950624	80.896896	-435.531631	-12.032770	80.957651	-35.113609	
1754	8.7700	452.295012	1444.956618	-85.985305	434.061808	1455.333204	-403.058917	361.706592	1527.513533	-237.915311	405.798892	1363.013383	-240.853689	515.011419	1186.458553	19.047347	723.951240	985.454691	-42.526317	508.273912	1195.379790	-478.514509	729.480306	982.236951	-452.832098	-118.319733	1188.195058	-236.775199	56.562576	1226.310541	-423.663009	49.481180	1229.958566	-51.998561	77.707932	1148.788426	-383.326177	75.055570	1163.343369	-106.470052	-96.693284	1240.884223	-192.385250	-90.363042	1239.050888	-276.097278	8.883450	1144.336648	-38.495807	-2.762422	1095.591859	-433.734053	140.385317	1061.673136	-20.776930	229.243472	1059.921075	-18.945275	304.671979	1017.496038	-21.058136	239.270509	1093.011238	-33.554943	420.965376	953.368879	-43.259368	429.279489	941.057829	-169.010336	348.736443	804.718223	-28.089645	326.814898	720.422023	-47.033446	264.439200	657.891343	-52.485122	353.919223	709.968909	-72.751362	199.081602	543.014490	-78.397462	224.230636	556.228579	-166.114106	133.111589	491.878287	-120.705512	443.123366	507.926324	-116.959421	325.049981	483.013212	-48.931916	350.361669	500.517061	-162.955409	62.615716	951.683245	-456.620233	118.619591	886.001187	-465.197667	151.944807	902.272988	-464.238111	137.256918	799.203032	-454.132995	209.953617	688.853217	-442.545112	223.260817	678.900828	-320.973133	121.520887	536.938977	-457.958742	112.426955	454.509132	-438.734629	57.821548	382.075869	-426.113035	142.793776	444.768764	-415.532680	6.901861	265.012444	-400.580442	46.227108	277.314791	-312.947656	-56.354211	215.419944	-347.586218	251.661242	212.879259	-363.801726	160.986403	207.661315	-317.024020	129.817636	185.174423	-430.437347	-218.140920	943.789994	-234.700041	-11.964049	80.874878	-435.529402	-12.043299	80.971256	-35.118820	
1755	8.7750	452.340233	1445.020723	-86.000018	434.135000	1455.391604	-403.138175	361.703874	1527.530699	-237.956355	405.892499	1363.019264	-240.885237	515.020933	1186.468681	19.046727	723.948377	985.454074	-42.553049	508.316521	1195.409256	-478.559730	729.537470	982.240119	-452.893261	-118.308468	1188.193042	-236.818615	56.635811	1226.258037	-423.734066	49.543179	1229.951695	-52.055300	77.741055	1148.689940	-383.357119	75.123237	1163.300284	-106.520934	-96.689290	1240.871337	-192.446682	-90.347314	1239.029203	-276.142813	8.915336	1144.359413	-38.521957	-2.739753	1095.524590	-433.752409	140.418405	1061.675127	-20.806054	229.264073	1059.928771	-18.996260	304.712449	1017.488523	-21.128279	239.306343	1093.001699	-33.592020	420.992792	953.348304	-43.337861	429.291429	941.024734	-169.063995	348.746816	804.702488	-28.139686	326.852848	720.398755	-47.052646	264.450193	657.878388	-52.495895	353.968846	709.931514	-72.739919	199.113897	542.994878	-78.400314	224.245982	556.204237	-166.121191	133.131274	491.861568	-120.691802	443.138872	507.913256	-116.981871	325.070245	483.020337	-48.929783	350.377935	500.494948	-162.966642	62.619334	951.614986	-456.640553	118.629629	885.922007	-465.200203	151.946467	902.203667	-464.244663	137.258515	799.141764	-454.122755	209.942304	688.770622	-442.547214	223.258634	678.859740	-320.966068	121.508736	536.890624	-457.943403	112.394035	454.473918	-438.734181	57.788462	382.040697	-426.102208	142.764798	444.757438	-415.524671	6.868142	264.989819	-400.564781	46.183585	277.295822	-312.932926	-56.379382	215.371765	-347.563502	251.632331	212.903998	-363.818420	160.972128	207.652163	-317.025655	129.776515	185.181423	-430.452958	-218.142302	943.793864	-234.705207	-11.953486	80.873581	-435.536952	-12.045254	80.970666	-35.120266	
